# xmcd
#
# Track frame offsets:
#	150
#	28770
#	45330
#	65345
#	85675
#	103982
#	116682
#	133117
#
# Disc length: 2240 seconds
#
# Revision: 1
# Processed by: cddbd v1.5.2PL0 Copyright (c) Steve Scherf et al.
# Submitted via: EasyCDDAExtractor 16.0.8.2
#
DISCID=6708be08
DTITLE=Δυνάμεις του Αιγαίου - Ανατολικό παράθυρο-Δυν. Αιγαίου
DYEAR=1985
DGENRE=Έντεχνη νεώτερη
TTITLE0=Για τον Α. Παπαδιαμάντη [Δ.Γιαλαμάς-Χ.Τσιαμούλης]
TTITLE1=Φύσηξε αέρας [Δ. Γιαλαμάς-Ν. Γράψας]
TTITLE2=Φεγγάρι μου κρυφό [Δ. Γιαλαμάς-Ν. Γράψας]
TTITLE3=Σβύνουν πάλι τα φώτα [Δ. Γιαλαμάς-Λαϊκό Αρμενίας]
TTITLE4=Κόκκινα χείλη φίλησα [Δημοτικά δίστιχα-Ν. Γράψας]
TTITLE5=Έτσι να μ' ακουμπάει η μουσική [Χ. Τσιαμούλης]
TTITLE6=Η Μέδουσα [Α. Τζιάφας-Χ. Τσιαμούλης]
TTITLE7=Χορός στο Σείριο [Δυνάμεις του Αιγαίου]
EXTD=
EXTT0=
EXTT1=
EXTT2=
EXTT3=
EXTT4=
EXTT5=
EXTT6=
EXTT7=
PLAYORDER=
